<?xml version="1.0" ?><svg baseProfile="tiny" height="64px" version="1.2" viewBox="0 0 64 64" width="64px" xml:space="preserve" xmlns="http://www.w3.org/2000/svg" xmlns:xlink="http://www.w3.org/1999/xlink"><g id="box"><rect fill="none" height="64" width="64"/></g><g id="icon"><g><path d="M51.5737,13.236h-39.145c-0.8533,0-1.541,0.6873-1.541,1.541v34.4482c0,0.854,0.6938,1.5385,1.541,1.5385    h39.145c0.8257,0,1.5386-0.6622,1.5386-1.5385V14.777C53.1123,13.9301,52.4275,13.236,51.5737,13.236z M50.0317,47.6844H13.9685    v-31.369h36.0632V47.6844z M24.8806,33.2949l0.8315-1.3247l2.0908,3.6552c0.3064,0.5363,0.9009,0.8378,1.5161,0.7673    c0.613-0.074,1.1248-0.5066,1.3-1.0984l2.4033-8.2272l3.8381,16.369c0.3611,1.5475,2.5564,1.5992,2.9854,0.0556l2.6257-9.6364    h4.4722v-3.0775l-5.6484-0.0023c-0.6934,0-1.3025,0.4645-1.4868,1.1355l-1.3406,4.9057l-3.7761-16.1418    c-0.3657-1.5376-2.542-1.5921-2.9792-0.0815L28.678,30.9533l-1.5657-2.7396c-0.5864-1.0218-2.0356-1.0225-2.6406-0.0568    l-1.7473,2.7779h-5.6792v3.0829h6.533C24.106,34.0178,24.5989,33.7422,24.8806,33.2949z" fill="#565D64"/></g></g></svg>